HIERARCHY
ROOT hips
{
  OFFSET 0 9.313263304106702 1.2146308026317778
  CHANNELS 6 Xposition Yposition Zposition Yrotation Xrotation Zrotation
  JOINT spine
  {
    OFFSET -6.402521e-31 0.5173342420023708 0
    CHANNELS 3 Yrotation Xrotation Zrotation
    JOINT chest
    {
      OFFSET 0 1.130544299341115 0
      CHANNELS 3 Yrotation Xrotation Zrotation
      JOINT upperChest
      {
        OFFSET 0 1.0863555061129995 0
        CHANNELS 3 Yrotation Xrotation Zrotation
        JOINT neck
        {
          OFFSET 0 1.3773706506454462 0
          CHANNELS 3 Yrotation Xrotation Zrotation
          JOINT head
          {
            OFFSET 0 0.7374408940073979 0
            CHANNELS 3 Yrotation Xrotation Zrotation
            JOINT leftEye
            {
              OFFSET 0.25066580148932727 0.6408406698778757 0.15963719178883284
              CHANNELS 3 Yrotation Xrotation Zrotation
              End Site
              {
                OFFSET 0.25066580148932727 0.6408406698778757 0.15963719178883284
              }
            }
            JOINT rightEye
            {
              OFFSET -0.25066576739704244 0.6408406384191823 0.15963727561643756
              CHANNELS 3 Yrotation Xrotation Zrotation
              End Site
              {
                OFFSET -0.25066576739704244 0.6408406384191823 0.15963727561643756
              }
            }
          }
        }
        JOINT leftShoulder
        {
          OFFSET 0.3761817444281191 1.0539491987447769 0
          CHANNELS 3 Yrotation Xrotation Zrotation
          JOINT leftUpperArm
          {
            OFFSET 0.8702844380000002 0 0
            CHANNELS 3 Yrotation Xrotation Zrotation
            JOINT leftLowerArm
            {
              OFFSET 2.198527310000323 0 0
              CHANNELS 3 Yrotation Xrotation Zrotation
              JOINT leftHand
              {
                OFFSET 2.146852313968281 0 0
                CHANNELS 3 Yrotation Xrotation Zrotation
                JOINT leftIndexProximal
                {
                  OFFSET 0.6585177834681599 0.07380250427007962 0.18382213159631788
                  CHANNELS 3 Yrotation Xrotation Zrotation
                  JOINT leftIndexIntermediate
                  {
                    OFFSET 0.3323021288626682 -0.009606893929485771 -0.012820872253340998
                    CHANNELS 3 Yrotation Xrotation Zrotation
                    JOINT leftIndexDistal
                    {
                      OFFSET 0.2045908926985518 -0.0071133989147997845 -0.006828784783599051
                      CHANNELS 3 Yrotation Xrotation Zrotation
                      End Site
                      {
                        OFFSET 0.2045908926985518 -0.0071133989147997845 -0.006828784783599051
                      }
                    }
                  }
                }
                JOINT leftLittleProximal
                {
                  OFFSET 0.6110054258835662 0.07380246363125398 -0.29175655876064077
                  CHANNELS 3 Yrotation Xrotation Zrotation
                  JOINT leftLittleIntermediate
                  {
                    OFFSET 0.3144281999999998 -2.5124724523095665e-9 1.8658118799974588e-7
                    CHANNELS 3 Yrotation Xrotation Zrotation
                    JOINT leftLittleDistal
                    {
                      OFFSET 0.18116185580251631 0.002815456192251098 0.0034826415518049436
                      CHANNELS 3 Yrotation Xrotation Zrotation
                      End Site
                      {
                        OFFSET 0.18116185580251631 0.002815456192251098 0.0034826415518049436
                      }
                    }
                  }
                }
                JOINT leftMiddleProximal
                {
                  OFFSET 0.6637478005691111 0.07380246480054087 0.02046981859247815
                  CHANNELS 3 Yrotation Xrotation Zrotation
                  JOINT leftMiddleIntermediate
                  {
                    OFFSET 0.3705733999999994 -2.9611069152224445e-9 9.35054791928458e-8
                    CHANNELS 3 Yrotation Xrotation Zrotation
                    JOINT leftMiddleDistal
                    {
                      OFFSET 0.22861063500000056 -1.82673876025774e-9 -1.6740782024515788e-7
                      CHANNELS 3 Yrotation Xrotation Zrotation
                      End Site
                      {
                        OFFSET 0.22861063500000056 -1.82673876025774e-9 -1.6740782024515788e-7
                      }
                    }
                  }
                }
                JOINT leftRingProximal
                {
                  OFFSET 0.6561845547265777 0.07380246406440083 -0.13588087571513918
                  CHANNELS 3 Yrotation Xrotation Zrotation
                  JOINT leftRingIntermediate
                  {
                    OFFSET 0.3437531000000005 -2.746796123886952e-9 1.4935781944558357e-7
                    CHANNELS 3 Yrotation Xrotation Zrotation
                    JOINT leftRingDistal
                    {
                      OFFSET 0.1983118991198174 -0.002467117924596085 -0.004538141969590015
                      CHANNELS 3 Yrotation Xrotation Zrotation
                      End Site
                      {
                        OFFSET 0.1983118991198174 -0.002467117924596085 -0.004538141969590015
                      }
                    }
                  }
                }
                JOINT leftThumbProximal
                {
                  OFFSET 0.09767004258864787 -0.14930060425447422 -0.07008212897521154
                  CHANNELS 3 Yrotation Xrotation Zrotation
                  JOINT leftThumbIntermediate
                  {
                    OFFSET 0.36682123028154767 -0.015768465060082004 0.28693641268151077
                    CHANNELS 3 Yrotation Xrotation Zrotation
                    JOINT leftThumbDistal
                    {
                      OFFSET 0.21091084272403915 -0.016756648201192714 0.1933767059105508
                      CHANNELS 3 Yrotation Xrotation Zrotation
                      End Site
                      {
                        OFFSET 0.21091084272403915 -0.016756648201192714 0.1933767059105508
                      }
                    }
                  }
                }
              }
            }
          }
        }
        JOINT rightShoulder
        {
          OFFSET -0.37618174442811925 1.0539491987447769 0
          CHANNELS 3 Yrotation Xrotation Zrotation
          JOINT rightUpperArm
          {
            OFFSET -0.870284438 0 0
            CHANNELS 3 Yrotation Xrotation Zrotation
            JOINT rightLowerArm
            {
              OFFSET -2.1985273100003235 0 0
              CHANNELS 3 Yrotation Xrotation Zrotation
              JOINT rightHand
              {
                OFFSET -2.1468523139682802 0 0
                CHANNELS 3 Yrotation Xrotation Zrotation
                JOINT rightIndexProximal
                {
                  OFFSET -0.6585177834681599 0.07380250427007962 0.18382213159631788
                  CHANNELS 3 Yrotation Xrotation Zrotation
                  JOINT rightIndexIntermediate
                  {
                    OFFSET -0.3323021288626682 -0.009606893929485771 -0.012820872253340998
                    CHANNELS 3 Yrotation Xrotation Zrotation
                    JOINT rightIndexDistal
                    {
                      OFFSET -0.2045908926985518 -0.0071133989147997845 -0.006828784783599051
                      CHANNELS 3 Yrotation Xrotation Zrotation
                      End Site
                      {
                        OFFSET -0.2045908926985518 -0.0071133989147997845 -0.006828784783599051
                      }
                    }
                  }
                }
                JOINT rightLittleProximal
                {
                  OFFSET -0.6110054258835662 0.07380246363125398 -0.29175655876064077
                  CHANNELS 3 Yrotation Xrotation Zrotation
                  JOINT rightLittleIntermediate
                  {
                    OFFSET -0.3144281999999998 -2.5124724523095665e-9 1.8658118799974588e-7
                    CHANNELS 3 Yrotation Xrotation Zrotation
                    JOINT rightLittleDistal
                    {
                      OFFSET -0.18116185580251631 0.002815456192251098 0.0034826415518049436
                      CHANNELS 3 Yrotation Xrotation Zrotation
                      End Site
                      {
                        OFFSET -0.18116185580251631 0.002815456192251098 0.0034826415518049436
                      }
                    }
                  }
                }
                JOINT rightMiddleProximal
                {
                  OFFSET -0.6637478005691111 0.07380246480054087 0.02046981859247815
                  CHANNELS 3 Yrotation Xrotation Zrotation
                  JOINT rightMiddleIntermediate
                  {
                    OFFSET -0.3705733999999994 -2.9611069152224445e-9 9.35054791928458e-8
                    CHANNELS 3 Yrotation Xrotation Zrotation
                    JOINT rightMiddleDistal
                    {
                      OFFSET -0.22861063500000056 -1.82673876025774e-9 -1.6740782024515788e-7
                      CHANNELS 3 Yrotation Xrotation Zrotation
                      End Site
                      {
                        OFFSET -0.22861063500000056 -1.82673876025774e-9 -1.6740782024515788e-7
                      }
                    }
                  }
                }
                JOINT rightRingProximal
                {
                  OFFSET -0.6561845547265777 0.07380246406440083 -0.13588087571513918
                  CHANNELS 3 Yrotation Xrotation Zrotation
                  JOINT rightRingIntermediate
                  {
                    OFFSET -0.3437531000000005 -2.746796123886952e-9 1.4935781944558357e-7
                    CHANNELS 3 Yrotation Xrotation Zrotation
                    JOINT rightRingDistal
                    {
                      OFFSET -0.1983118991198174 -0.002467117924596085 -0.004538141969590015
                      CHANNELS 3 Yrotation Xrotation Zrotation
                      End Site
                      {
                        OFFSET -0.1983118991198174 -0.002467117924596085 -0.004538141969590015
                      }
                    }
                  }
                }
                JOINT rightThumbProximal
                {
                  OFFSET -0.09767004258864787 -0.14930060425447422 -0.07008212897521154
                  CHANNELS 3 Yrotation Xrotation Zrotation
                  JOINT rightThumbIntermediate
                  {
                    OFFSET -0.36682123028154767 -0.015768465060082004 0.28693641268151077
                    CHANNELS 3 Yrotation Xrotation Zrotation
                    JOINT rightThumbDistal
                    {
                      OFFSET -0.21091084272403915 -0.016756648201192714 0.1933767059105508
                      CHANNELS 3 Yrotation Xrotation Zrotation
                      End Site
                      {
                        OFFSET -0.21091084272403915 -0.016756648201192714 0.1933767059105508
                      }
                    }
                  }
                }
              }
            }
          }
        }
      }
    }
  }
  JOINT leftUpperLeg
  {
    OFFSET 0.7715603 -0.3993844658041501 0
    CHANNELS 3 Yrotation Xrotation Zrotation
    JOINT leftLowerLeg
    {
      OFFSET 0 -3.529830000249343 0
      CHANNELS 3 Yrotation Xrotation Zrotation
      JOINT leftFoot
      {
        OFFSET 0 -4.154939295409685 0.004208579085223096
        CHANNELS 3 Yrotation Xrotation Zrotation
        JOINT leftToes
        {
          OFFSET 0 -0.6353414391261847 1.10414981190622
          CHANNELS 3 Yrotation Xrotation Zrotation
          End Site
          {
            OFFSET 0 -0.6015820691747853 1.10414981190622
          }
        }
      }
    }
  }
  JOINT rightUpperLeg
  {
    OFFSET -0.7715603 -0.3993844658041501 0
    CHANNELS 3 Yrotation Xrotation Zrotation
    JOINT rightLowerLeg
    {
      OFFSET 0 -3.529830000249343 0
      CHANNELS 3 Yrotation Xrotation Zrotation
      JOINT rightFoot
      {
        OFFSET 0 -4.154939295409685 0.004208579085223096
        CHANNELS 3 Yrotation Xrotation Zrotation
        JOINT rightToes
        {
          OFFSET 0 -0.6353414391261847 1.10414981190622
          CHANNELS 3 Yrotation Xrotation Zrotation
          End Site
          {
            OFFSET 0 -0.6015820691747853 1.10414981190622
          }
        }
      }
    }
  }
}
MOTION
Frames: 4
Frame Time: 0.03333333333333333
-0.0036141534589908338 8.83664998141202 1.4053384509740838 1.860322825522647 -5.678300687814652 -0.6497986601653006 -0.2609259866426198 1.419545725135323 0.020487464039313424 -1.049326950419081 5.621616056218632 -0.2078289020008468 0 0 0 -0.4233239404784671 4.988534355530937 0.2693780017332423 -1.7846304327060856 -3.0095142407361672 -0.08750316017033874 0 0 0 0 0 0 -13.247984022755931 1.117133597883817 -3.48947749775263 -17.38310153928513 -24.75315569478149 -56.136223351787976 -19.013066005362656 -0.000023752585102447838 0.000006763354978602567 1.2039531643324903 22.623716801796437 -17.769280006415045 -1.7418706867975553 -2.882153920064455 -36.25667385357448 3.5906905926286354 1.0019054481722982 -31.15615183805334 0.5995557144288653 0.026651173986356073 -5.037405183662036 8.806062171309785 5.314236925619916 -39.8731464004418 -3.096664635463309 0.09299678830183566 -8.697201811139758 0.2968830917413959 0.015651076855401874 -2.5263084226410033 3.4344619202019784 0.9013978246901613 -32.793978915391406 3.9635379162695203 1.2454641886397297 -34.91697506228967 0.9657215012951084 0.06758848611269928 -8.00823781487522 7.184229065044099 3.8082582478118416 -38.42678260350138 2.5216515454409207 0.4763993911423373 -21.381561158760086 0.5721784544669017 0.023770668156775285 -4.746750695512882 9.024904107567453 1.5291137022996728 4.837655339409102 24.860348762016358 7.697634474945348 0.4716380756108517 12.401025177401849 3.1220227145084998 0.7818109510431953 8.183521929815734 1.819343472273882 8.461128664691948 51.27875827651372 -10.317613768445947 32.289172419625594 9.300336439532625 0.000004256379694245676 -0.000008417086675228863 2.250948386939544 -0.640675490233746 6.700409029100158 -2.6575519042702704 0.2838379161634297 36.06174301902812 -3.306635385915787 0.8423532854435045 28.508131017207464 -1.126379459308027 0.08973306096630909 9.198124185541994 -7.777520808412499 3.247455660944094 27.985882961628487 -2.853140584060817 0.5810997250155818 24.850351179791243 -0.7177518209637781 0.021888338908648972 5.4268077558688095 -6.696863892487099 2.756703926927712 29.344627743901565 -2.719737710789941 0.5757876482006343 23.75317597395247 -1.3615666419082622 0.12466525804461252 10.931685771195902 -6.807285263766246 2.8359116880661226 29.538644127296696 -2.253375518512741 0.36744532505020605 18.604824020797782 -0.7187393362704373 0.03784509710221357 5.80216185017512 -9.035076721107155 -7.806892398677248 -4.308134765742554 -26.210293245276226 10.40665809447728 -3.6767081191950406 -7.417950317419594 1.4845591640026867 -2.2276426038329635 7.2286548021088395 -7.726965663084945 2.5333596598593853 8.563224642524666 23.225351721884145 5.407562020689631 0.6744854069202849 -13.677627495536374 -4.598965004515627 0.00000793867937312329 -0.7585440677501532 -0.0000022918483686017004 -5.589335715892223 -6.537476578524347 -0.5825572829241117 -10.863747001418474 23.11894189559748 -4.643099952800272 -2.8142312614291973 -16.01967609346298 3.474309318354814 0.000006174044798037912 -3.99271050637864 -0.000001650406858556522
-0.006744089451703158 8.834688013250176 1.4096583653367312 1.6792001867128545 -5.713299764944532 -0.6436267734389071 -0.24658351940682316 1.4095444542814382 0.006566817408421898 -0.9928643262978225 5.580222576894234 -0.25382950201106946 0 0 0 -0.4184459607087879 4.983027168518399 0.27217842486427873 -1.7727274540526354 -2.950818601126916 -0.04380310372665387 0 0 0 0 0 0 -13.245905356847445 1.122943463661291 -3.402049260867221 -17.13604440028989 -24.421346060632313 -56.300399640143 -19.03440040856057 -0.000020718237008358605 -0.000007349131932283791 1.1236256193239265 22.66217409507018 -17.808374405586065 -1.7657404513374186 -2.8836522681180012 -36.154682499042345 3.5895978038614818 1.0012467678892476 -31.145644729496084 0.6002434629754926 0.026708296785568544 -5.04314435190158 8.81897702287268 5.319459303330366 -39.82727912332828 -3.097678046179015 0.09280980495739538 -8.68873198445363 0.29683901626638814 0.015642996020940905 -2.52597011744879 3.4284673205462393 0.8984865243292025 -32.67041254659873 3.9605559558697188 1.243369174328913 -34.88675278367949 0.9666713137258737 0.06773249381484904 -8.016151014716906 7.1750095578622775 3.79301774048026 -38.330822827379166 2.5197646935484044 0.4756574895990301 -21.364961794318976 0.5735767357020503 0.02389048829477869 -4.7583433225302265 8.964632534524588 1.4955900211347983 4.793873134751469 24.798430093587932 7.6809967950060125 0.46979114999480237 12.460306750225094 3.1448985626147246 0.7770041927856368 8.292185837555703 1.834948143232719 8.471620505157274 51.18432390963598 -10.50328042278257 32.00246657996652 9.494951025680473 -0.000007831908581827577 0.000013574179099714848 2.3283886722542704 -0.398777010714654 6.780162702801283 -2.651745142028773 0.27965987094859324 36.06153561139578 -3.3063784544896153 0.8422115970693814 28.505809422404674 -1.1253519506521203 0.08956275292573333 9.189593870380945 -7.785824698444414 3.2544986749967157 28.010609070197397 -2.853844488071587 0.5814142500675173 24.856701533621358 -0.7166292495451653 0.021776389498683536 5.417613539965553 -6.6855118122950765 2.7507983853389297 29.3529876768779 -2.71889255695713 0.5754030037634655 23.745602191759094 -1.3613734485476507 0.12529222287721284 10.931021360448087 -6.8204714251980425 2.844074611797681 29.545313790148732 -2.2527175334403 0.3672344119444164 18.59915522932655 -0.7182850252939679 0.037796872220906996 5.7984764707651575 -9.059538741940145 -7.791973860608384 -4.292147617923009 -26.23693924739143 10.414850015297146 -3.6839366402759537 -7.415308185440946 1.4836064599238432 -2.227492274546297 7.250106489916435 -7.682977395969969 2.5891782696093877 8.758113338952803 23.28428598598694 5.477469813472847 0.6761820103549502 -13.661045403610315 -4.677217935666317 9.26103054368526e-7 -0.7464659175658087 -0.0000014648137278173835 -5.626405115417261 -6.529097873486323 -0.5936798248885852 -10.89045204067171 23.18527976352133 -4.65346243734849 -2.581029265949284 -15.930840630155306 3.4275142080595438 -0.0000072892468980982695 -3.996849839538696 1.5999100319112987e-7
-0.0102049552581527 8.834293538873844 1.4205155816732415 1.5000471107973559 -5.757694983152617 -0.6331764119325869 -0.23600694554064383 1.3939974926588556 -0.0016581324656643529 -0.950716916053297 5.511618331907411 -0.2778547961169936 0 0 0 -0.406843560813662 4.969259831290465 0.2594480129920616 -1.7271224276215593 -2.8901630845852826 -0.04690521078629626 0 0 0 0 0 0 -13.211185570259941 1.1247861549481168 -3.348617990128219 -16.88463607175681 -23.89949791985016 -56.59311670527489 -18.745906710643848 -0.00003233954617010339 0.00000869432845148067 0.9194932144816906 22.64037056298024 -17.895395379874884 -1.7552202604584162 -2.863098934294895 -36.069251027328455 3.592734273683823 1.0031285594235593 -31.1759804763043 0.6012543653850706 0.026806112242163508 -5.051524653391436 8.818381350839738 5.3110210330944865 -39.76604906647018 -3.0997998957400954 0.09241753547512238 -8.670814248886439 0.2975997894603594 0.015701481185423718 -2.5321911023658124 3.4453732023843724 0.9101819052988459 -32.54333420625612 3.9580730828735686 1.2416623996579417 -34.861928648622246 0.9687185799678693 0.06802050922043307 -8.033237831968373 7.186090022478804 3.7938421576358867 -38.23107256146091 2.51686346917783 0.47452369258046184 -21.33926596123141 0.5767069276701031 0.024139743530632737 -4.784400393001798 8.928154420523065 1.4801861659831255 4.716570561754712 24.78981306699915 7.678701756112137 0.4695000685153702 12.501149600967452 3.160681405214064 0.7737332026666331 8.324887393025104 1.8399277771197449 8.473917757371481 51.05780726815084 -10.548160347907286 32.04946856017782 9.593862496993914 -3.2390150576194376e-7 -0.000005300231837592494 2.4067831384710736 -0.25734451730271257 6.85645255473854 -2.6494437347119755 0.27945816452367467 36.02315439146014 -3.306003065542111 0.8420219321126098 28.50226365214045 -1.1249720667603829 0.08949761925515491 9.186395324511512 -7.7841528994272675 3.25571491683323 28.032148922419175 -2.8542995591808245 0.5816164981166156 24.860724870010845 -0.7157877932492767 0.021720047104078648 5.410687678940569 -6.679626298713453 2.747321446235388 29.351929440182815 -2.718451511464406 0.5752249296203574 23.741670690280507 -1.3616868580558374 0.12591892091990697 10.934548372996185 -6.82248730411278 2.845523116324673 29.54889901962955 -2.2518581541958933 0.3669395071383009 18.591712587057984 -0.7181177093210289 0.037772292872699495 5.7970990290169295 -9.07838313176396 -7.780343250409131 -4.261437266762049 -26.251418511411813 10.419310219095204 -3.687822459426037 -7.417610459104865 1.4844522997080531 -2.227670979877379 7.299512199474384 -7.5042131672713595 2.6432095729221596 8.871929638584266 23.23108417062551 5.4930327700298305 0.6836829511165596 -13.615370719975255 -4.739970759677646 0.000014198823949643091 -0.7236645493746835 0.0000010802370224808643 -5.6536392295209215 -6.409458301458032 -0.5972698735942923 -10.916506104953347 23.14244730935937 -4.669376450605866 -2.3436419511721995 -15.824607970317048 3.392721856598355 -3.295378394266818e-7 -3.9816850815555744 -0.0000022349633405729794
-0.01334052024917169 8.83515791459517 1.4400674901012602 1.3423605602852153 -5.802003991366154 -0.6261433971873118 -0.2298532579533565 1.3756570265653967 -0.0016330402823235386 -0.925266458376924 5.42662543146852 -0.27028442270695713 0 0 0 -0.3926641313967517 4.939906268723988 0.24589748253346608 -1.652530257772098 -2.8844624582812775 -0.09725078950072477 0 0 0 0 0 0 -13.155993770235261 1.1216764339481629 -3.348163532480122 -16.66422687508761 -23.22860720228067 -56.98307493073548 -18.151378764003113 -0.00001896192433192386 -0.000010518250865778934 0.6699175139652538 22.57733850910207 -17.983896048959412 -1.715373926250185 -2.827587903124963 -36.02201804933494 3.6014482721272256 1.0084426250195087 -31.26025764451238 0.6015865009279214 0.02683168710123973 -5.0543399329278 8.797884733342407 5.287550369769042 -39.72086001666177 -3.102764494582675 0.09188952248270345 -8.645857000232093 0.29918328691225576 0.01581100600764996 -2.5453865104391817 3.4706670402681334 0.9267419056481309 -32.47146368147258 3.9564739370894837 1.2405543684082794 -34.845816244382725 0.9707837152474363 0.06831375399503589 -8.050495856302852 7.210551931470267 3.8082873403553865 -38.1674538900515 2.513946465590813 0.4733726596039495 -21.313217727588928 0.5806868446555947 0.02448540015903892 -4.817480744876212 8.926537386559213 1.487300806080138 4.63211013353 24.840874832509396 7.692392915080666 0.4710479469662132 12.518084460242166 3.1672332193875326 0.7723628109269546 8.254020186633364 1.8315003346885708 8.495248377491203 50.90006787304494 -10.40320847215528 32.442709802543625 9.592211861144744 0.000009493125828396717 -0.000006686271767786866 2.474043251799588 -0.1964249926267817 6.971327783119665 -2.6525675940744455 0.2845975706115434 35.947160219467484 -3.305739740823409 0.8418816846491026 28.49976787398761 -1.1260808421722122 0.08967943324342456 9.19562547642444 -7.77099787282596 3.2484801273925976 28.03209398035254 -2.853668736042612 0.5813380468466757 24.85515678880158 -0.7161147416829385 0.021743687631136387 5.413296047232304 -6.6788795763618145 2.7459476403181853 29.3389738086768 -2.718206733567742 0.5751158011775968 23.739587806219067 -1.3628401802913914 0.12665020650463565 10.944976692274693 -6.811923726925764 2.8394153890022413 29.549120593316196 -2.2504518313250124 0.36645812902546876 18.579566119866257 -0.7187510747371756 0.03785251092732968 5.802205090112189 -9.088936595583323 -7.773821908443047 -4.227347063220994 -26.258614048191536 10.421532532087559 -3.68972003497203 -7.419673323166797 1.4852056877575164 -2.2278573138430846 7.393551593106728 -7.209460292075426 2.7062294315176683 8.915282910114602 23.073665791667768 5.45662272371649 0.6906168959553688 -13.517424185703097 -4.787159640294887 1.1528455501031604e-7 -0.7058629441033589 0.0000010645817937501625 -5.659968992412074 -6.171949372515021 -0.5918701107950776 -10.90717057776047 23.00040238755972 -4.670332005961836 -2.1642899713702786 -15.721326105070874 3.3805398294747575 -0.000007716018967722097 -3.9594737810284535 -0.000003270567389738
